<?xml version="1.0" encoding="UTF-8"?>
<svg xmlns="http://www.w3.org/2000/svg" viewBox="-48 -146 169 184.4" role="img" aria-labelledby="title description">
  <title id="title">Ring of Wings live physical pilot: 6 of 26 planned public halls open</title>
  <desc id="description">Manifest-derived main-level plan showing constructed geometry only: 6 of 26 planned public halls are open, with the entrance, central Forum location, closed outer loop, four spokes, entrance shortcut, active doorways, 3 planned gallery connections, and 8 reserved outward expansion portals, R1–R8. Remaining planned halls will appear as they are physically constructed.</desc>
  <metadata>{&quot;generatedFrom&quot;:&quot;src/data/museum/museumBuildingManifest.json + compiled hall-local footprints&quot;,&quot;manifestVersion&quot;:&quot;canonical-six-v1&quot;,&quot;level&quot;:&quot;L0&quot;,&quot;livePhysicalNodes&quot;:18,&quot;authoredConnections&quot;:22,&quot;blockedReservations&quot;:11,&quot;openPublicHalls&quot;:6,&quot;plannedPublicHalls&quot;:26,&quot;plannedGalleryConnections&quot;:3,&quot;reservedOutwardExpansionPortals&quot;:8}</metadata>
  <defs>
    <pattern id="future-hatch" width="3" height="3" patternUnits="userSpaceOnUse" patternTransform="rotate(45)"><line x1="0" y1="0" x2="0" y2="3" stroke="#b98c6b" stroke-width=".7"/></pattern>
    <style>
      .background{fill:#0d1519}.grid{stroke:#d7c4a3;stroke-opacity:.08;stroke-width:.25}.node{fill:#172126;stroke:#59676d;stroke-width:.7}.node-hall{fill:#263239;stroke:#929a98}.node-court{fill:#353126;stroke:#b89a6d}.node-entrance{fill:#293536;stroke:#91a9a7}.role-outer-loop-link{fill:#18272c}.role-forum-spoke{fill:#233034}.role-shortcut{fill:#332d24}.edge{fill:none;stroke:#b78b55;stroke-width:.65;stroke-linecap:round;stroke-linejoin:round}.edge-forum-spoke{stroke:#a9c0c1;stroke-dasharray:2.5 2}.edge-shortcut{stroke:#d6b37b;stroke-dasharray:.7 2}.door{stroke:#e2e9e4;stroke-width:.65}.main-door{stroke:#f3c881;stroke-width:1.2}.reservation{fill:url(#future-hatch);stroke:#a97b60;stroke-width:.55;stroke-dasharray:1.8 1.2}.reservation-label{fill:#e1b894;font:700 1.65px system-ui,sans-serif;letter-spacing:.08em;text-anchor:middle;dominant-baseline:middle;paint-order:stroke;stroke:#171515;stroke-width:.45}.label{fill:#e7dfd3;font:700 2.5px system-ui,sans-serif;letter-spacing:.04em;text-anchor:middle;paint-order:stroke;stroke:#11171b;stroke-width:.8}.label-detail{fill:#c8d0ce;font-size:1.85px;letter-spacing:0}.label-court,.label-entrance{fill:#e3c89f;font-size:2.15px}.title{fill:#f0d7ad;font:700 2.7px system-ui,sans-serif;letter-spacing:.06em}.caption{fill:#9fa9a8;font:600 1.65px system-ui,sans-serif;letter-spacing:.04em}.entrance-line{stroke:#f1c57e;stroke-width:.8}.entrance-dot{fill:#f1c57e;stroke:#fff1d0;stroke-width:.35}.kiosk{fill:#efc884;stroke:#fff1d0;stroke-width:.4}.marker-label{fill:#efc884;font:700 1.65px system-ui,sans-serif;letter-spacing:.07em;paint-order:stroke;stroke:#11171b;stroke-width:.45}
    </style>
    <pattern id="minor-grid" width="8" height="8" patternUnits="userSpaceOnUse"><path class="grid" d="M 8 0 L 0 0 0 8" fill="none"/></pattern>
  </defs>
  <rect class="background" x="-48" y="-146" width="169" height="184.4"/>
  <rect fill="url(#minor-grid)" x="-48" y="-146" width="169" height="184.4"/>
  <text class="title" x="-44" y="-141.5">RING OF WINGS · LIVE PILOT · 6 OF 26 PLANNED PUBLIC HALLS OPEN · L0</text>
  <g aria-label="Physical footprints"><polygon class="node node-hall role-outer-hall" data-node="hall:mediterranean-beginnings-classical" points="-12,0 12,0 12,-56 -12,-56"/>
    <polygon class="node node-hall role-outer-hall" data-node="hall:renaissance-humanism-new-method" points="-40,-58 -16,-58 -16,-114 -40,-114"/>
    <polygon class="node node-hall role-outer-hall" data-node="hall:phenomenology-existence-embodiment" points="68,-114 68,-138 12,-138 12,-114"/>
    <polygon class="node node-hall role-outer-hall" data-node="hall:analytic-traditions" points="100,-122 76,-122 76,-66 100,-66"/>
    <polygon class="node node-hall role-outer-hall" data-node="hall:justice-democratic-reason" points="113,-56 89,-56 89,0 113,0"/>
    <polygon class="node node-hall role-forum-hall" data-node="place:core-questions-forum" points="26,-41 54,-41 54,-69 26,-69"/>
    <polygon class="node node-corridor role-outer-loop-link" data-node="corridor:outer-01-mediterranean-renaissance" points="-2.4,-56 2.4,-56 2.4,-60 -2.4,-60"/>
    <polygon class="node node-corridor role-outer-loop-link" data-node="corridor:outer-01-mediterranean-renaissance" points="-12,-56 -2.4,-56 -2.4,-60 -12,-60"/>
    <polygon class="node node-corridor role-outer-loop-link" data-node="corridor:outer-01-mediterranean-renaissance" points="-16,-54 -12,-54 -12,-60 -16,-60"/>
    <polygon class="node node-corridor role-outer-loop-link" data-node="corridor:outer-01-mediterranean-renaissance" points="-25.6,-54 -16,-54 -16,-58 -25.6,-58"/>
    <polygon class="node node-corridor role-outer-loop-link" data-node="corridor:outer-01-mediterranean-renaissance" points="-30.4,-54 -25.6,-54 -25.6,-58 -30.4,-58"/>
    <polygon class="node node-corridor role-outer-loop-link" data-node="corridor:outer-02-renaissance-phenomenology" points="-30.4,-114 -25.6,-114 -25.6,-126 -30.4,-126"/>
    <polygon class="node node-corridor role-outer-loop-link" data-node="corridor:outer-02-renaissance-phenomenology" points="-28,-123.6 12,-123.6 12,-128.4 -28,-128.4"/>
    <polygon class="node node-corridor role-outer-loop-link" data-node="corridor:outer-03-phenomenology-analytic" points="68,-123.6 88,-123.6 88,-128.4 68,-128.4"/>
    <polygon class="node node-corridor role-outer-loop-link" data-node="corridor:outer-03-phenomenology-analytic" points="85.6,-122 90.4,-122 90.4,-126 85.6,-126"/>
    <polygon class="node node-corridor role-outer-loop-link" data-node="corridor:outer-04-analytic-justice" points="85.6,-56 90.4,-56 90.4,-66 85.6,-66"/>
    <polygon class="node node-corridor role-outer-loop-link" data-node="corridor:outer-04-analytic-justice" points="88,-55.6 101,-55.6 101,-60.4 88,-60.4"/>
    <polygon class="node node-corridor role-outer-loop-link" data-node="corridor:outer-04-analytic-justice" points="98.6,-56 103.4,-56 103.4,-60 98.6,-60"/>
    <polygon class="node node-corridor role-outer-loop-link" data-node="corridor:outer-05-justice-return" points="98.6,22 103.4,22 103.4,0 98.6,0"/>
    <polygon class="node node-corridor role-outer-loop-link" data-node="corridor:outer-05-justice-return" points="86,24.4 101,24.4 101,19.6 86,19.6"/>
    <polygon class="node node-corridor role-south-return-sleeve" data-node="place:south-return-sleeve" points="22,24.4 86,24.4 86,19.6 22,19.6"/>
    <polygon class="node node-entrance role-public-entrance" data-node="place:entrance-orientation" points="-8,27 8,27 8,12 -8,12"/>
    <polygon class="node node-entrance role-public-entrance" data-node="place:entrance-orientation" points="8,24.4 22,24.4 22,19.6 8,19.6"/>
    <polygon class="node node-entrance role-public-entrance" data-node="place:entrance-orientation" points="-2.4,12 2.4,12 2.4,0 -2.4,0"/>
    <polygon class="node node-corridor role-forum-spoke" data-node="corridor:spoke-west" points="12,-25.6 18,-25.6 18,-30.4 12,-30.4"/>
    <polygon class="node node-corridor role-forum-spoke" data-node="corridor:spoke-west" points="15.6,-28 20.4,-28 20.4,-55 15.6,-55"/>
    <polygon class="node node-corridor role-forum-spoke" data-node="corridor:spoke-west" points="18,-52.6 26,-52.6 26,-57.4 18,-57.4"/>
    <polygon class="node node-corridor role-forum-spoke" data-node="corridor:spoke-north" points="37.6,-69 42.4,-69 42.4,-114 37.6,-114"/>
    <polygon class="node node-corridor role-forum-spoke" data-node="corridor:spoke-east" points="62,-91.6 76,-91.6 76,-96.4 62,-96.4"/>
    <polygon class="node node-corridor role-forum-spoke" data-node="corridor:spoke-east" points="59.6,-55 64.4,-55 64.4,-94 59.6,-94"/>
    <polygon class="node node-corridor role-forum-spoke" data-node="corridor:spoke-east" points="54,-52.6 62,-52.6 62,-57.4 54,-57.4"/>
    <polygon class="node node-corridor role-forum-spoke" data-node="corridor:spoke-south" points="67.6,19.6 72.4,19.6 72.4,8 67.6,8"/>
    <polygon class="node node-corridor role-forum-spoke" data-node="corridor:spoke-south" points="47,10.4 70,10.4 70,5.6 47,5.6"/>
    <polygon class="node node-corridor role-forum-spoke" data-node="corridor:spoke-south" points="44.6,8 49.4,8 49.4,-41 44.6,-41"/>
    <polygon class="node node-corridor role-shortcut" data-node="corridor:entrance-forum-shortcut" points="8,18.4 40,18.4 40,13.6 8,13.6"/>
    <polygon class="node node-corridor role-shortcut" data-node="corridor:entrance-forum-shortcut" points="37.6,16 42.4,16 42.4,-41 37.6,-41"/></g>
  <g aria-label="Walkable connections"><polyline class="edge edge-outer-loop" data-connection="conn:entrance-mediterranean" points="0,2 0,0 0,-2"/>
    <polyline class="edge edge-outer-loop" data-connection="conn:mediterranean-outer-01" points="0,-54 0,-56 0,-58"/>
    <polyline class="edge edge-outer-loop" data-connection="conn:outer-01-renaissance" points="-28,-56 -28,-58 -28,-60"/>
    <polyline class="edge edge-outer-loop" data-connection="conn:renaissance-outer-02" points="-28,-112 -28,-114 -28,-116"/>
    <polyline class="edge edge-outer-loop" data-connection="conn:outer-02-phenomenology" points="10,-126 12,-126 14,-126"/>
    <polyline class="edge edge-outer-loop" data-connection="conn:phenomenology-outer-03" points="66,-126 68,-126 70,-126"/>
    <polyline class="edge edge-outer-loop" data-connection="conn:outer-03-analytic" points="88,-124 88,-122 88,-120"/>
    <polyline class="edge edge-outer-loop" data-connection="conn:analytic-outer-04" points="88,-68 88,-66 88,-64"/>
    <polyline class="edge edge-outer-loop" data-connection="conn:outer-04-justice" points="101,-58 101,-56 101,-54"/>
    <polyline class="edge edge-outer-loop" data-connection="conn:justice-outer-05" points="101,-2 101,0 101,2"/>
    <polyline class="edge edge-outer-loop" data-connection="conn:outer-05-return" points="88,22 86,22 84,22"/>
    <polyline class="edge edge-outer-loop" data-connection="conn:return-entrance" points="24,22 22,22 20,22"/>
    <polyline class="edge edge-forum-spoke" data-connection="conn:mediterranean-spoke-west" points="10,-28 12,-28 14,-28"/>
    <polyline class="edge edge-forum-spoke" data-connection="conn:spoke-west-forum" points="24,-55 26,-55 28,-55"/>
    <polyline class="edge edge-forum-spoke" data-connection="conn:phenomenology-spoke-north" points="40,-116 40,-114 40,-112"/>
    <polyline class="edge edge-forum-spoke" data-connection="conn:spoke-north-forum" points="40,-71 40,-69 40,-67"/>
    <polyline class="edge edge-forum-spoke" data-connection="conn:analytic-spoke-east" points="78,-94 76,-94 74,-94"/>
    <polyline class="edge edge-forum-spoke" data-connection="conn:spoke-east-forum" points="56,-55 54,-55 52,-55"/>
    <polyline class="edge edge-forum-spoke" data-connection="conn:return-spoke-south" points="70,21.6 70,19.6 70,17.6"/>
    <polyline class="edge edge-forum-spoke" data-connection="conn:spoke-south-forum" points="47,-39 47,-41 47,-43"/>
    <polyline class="edge edge-shortcut" data-connection="conn:entrance-shortcut" points="6,16 8,16 10,16"/>
    <polyline class="edge edge-shortcut" data-connection="conn:shortcut-forum" points="40,-39 40,-41 40,-43"/></g>
  <g aria-label="Active doorways"><line class="door" x1="2" y1="0" x2="-2" y2="0"/>
    <line class="door" x1="-2" y1="-56" x2="2" y2="-56"/>
    <line class="door" x1="12" y1="-30" x2="12" y2="-26"/>
    <line class="door" x1="-26" y1="-58" x2="-30" y2="-58"/>
    <line class="door" x1="-30" y1="-114" x2="-26" y2="-114"/>
    <line class="door" x1="68" y1="-128" x2="68" y2="-124"/>
    <line class="door" x1="12" y1="-124" x2="12" y2="-128"/>
    <line class="door" x1="42" y1="-114" x2="38" y2="-114"/>
    <line class="door" x1="86" y1="-122" x2="90" y2="-122"/>
    <line class="door" x1="90" y1="-66" x2="86" y2="-66"/>
    <line class="door" x1="76" y1="-92" x2="76" y2="-96"/>
    <line class="door" x1="99" y1="-56" x2="103" y2="-56"/>
    <line class="door" x1="103" y1="0" x2="99" y2="0"/>
    <line class="door" x1="42" y1="-41" x2="38" y2="-41"/>
    <line class="door" x1="38" y1="-69" x2="42" y2="-69"/>
    <line class="door" x1="54" y1="-57" x2="54" y2="-53"/>
    <line class="door" x1="26" y1="-53" x2="26" y2="-57"/>
    <line class="door" x1="49" y1="-41" x2="45" y2="-41"/>
    <line class="door" x1="2" y1="-56" x2="-2" y2="-56"/>
    <line class="door" x1="-30" y1="-58" x2="-26" y2="-58"/>
    <line class="door" x1="-26" y1="-114" x2="-30" y2="-114"/>
    <line class="door" x1="12" y1="-128" x2="12" y2="-124"/>
    <line class="door" x1="68" y1="-124" x2="68" y2="-128"/>
    <line class="door" x1="90" y1="-122" x2="86" y2="-122"/>
    <line class="door" x1="86" y1="-66" x2="90" y2="-66"/>
    <line class="door" x1="103" y1="-56" x2="99" y2="-56"/>
    <line class="door" x1="99" y1="0" x2="103" y2="0"/>
    <line class="door" x1="86" y1="24" x2="86" y2="20"/>
    <line class="door" x1="22" y1="24" x2="22" y2="20"/>
    <line class="door" x1="86" y1="20" x2="86" y2="24"/>
    <line class="door" x1="68" y1="19.6" x2="72" y2="19.6"/>
    <line class="door" x1="22" y1="20" x2="22" y2="24"/>
    <line class="door" x1="-2" y1="0" x2="2" y2="0"/>
    <line class="door" x1="8" y1="14" x2="8" y2="18"/>
    <line class="door main-door" x1="3" y1="27" x2="-3" y2="27"/>
    <line class="door" x1="12" y1="-26" x2="12" y2="-30"/>
    <line class="door" x1="26" y1="-57" x2="26" y2="-53"/>
    <line class="door" x1="38" y1="-114" x2="42" y2="-114"/>
    <line class="door" x1="42" y1="-69" x2="38" y2="-69"/>
    <line class="door" x1="76" y1="-96" x2="76" y2="-92"/>
    <line class="door" x1="54" y1="-53" x2="54" y2="-57"/>
    <line class="door" x1="72" y1="19.6" x2="68" y2="19.6"/>
    <line class="door" x1="45" y1="-41" x2="49" y2="-41"/>
    <line class="door" x1="8" y1="18" x2="8" y2="14"/>
    <line class="door" x1="38" y1="-41" x2="42" y2="-41"/></g>
  <g aria-label="3 planned gallery connections and 8 reserved outward expansion portals"><g data-reservation="reserve:insert-south-asian"><polygon class="reservation reservation-insertion" points="-17,-61 -11,-61 -11,-65 -17,-65"/><text class="reservation-label" x="-14" y="-63">PLAN</text></g>
    <g data-reservation="reserve:insert-islamic"><polygon class="reservation reservation-insertion" points="-35.4,-123 -35.4,-117 -31.4,-117 -31.4,-123"/><text class="reservation-label" x="-33.4" y="-120">PLAN</text></g>
    <g data-reservation="reserve:insert-feminist"><polygon class="reservation reservation-insertion" points="92,-61.4 98,-61.4 98,-65.4 92,-65.4"/><text class="reservation-label" x="95" y="-63.4">PLAN</text></g>
    <g data-reservation="reserve:outward-R1"><polygon class="reservation reservation-outward-expansion" points="-14,16 -14,24 -8,24 -8,16"/><text class="reservation-label" x="-11" y="20">R1</text></g>
    <g data-reservation="reserve:outward-R2"><polygon class="reservation reservation-outward-expansion" points="-24,-48 -16,-48 -16,-54 -24,-54"/><text class="reservation-label" x="-20" y="-51">R2</text></g>
    <g data-reservation="reserve:outward-R3"><polygon class="reservation reservation-outward-expansion" points="-9,-128.4 -1,-128.4 -1,-134.4 -9,-134.4"/><text class="reservation-label" x="-5" y="-131.4">R3</text></g>
    <g data-reservation="reserve:outward-R4"><polygon class="reservation reservation-outward-expansion" points="74,-128.4 82,-128.4 82,-134.4 74,-134.4"/><text class="reservation-label" x="78" y="-131.4">R4</text></g>
    <g data-reservation="reserve:outward-R5"><polygon class="reservation reservation-outward-expansion" points="79.6,-67 79.6,-59 85.6,-59 85.6,-67"/><text class="reservation-label" x="82.6" y="-63">R5</text></g>
    <g data-reservation="reserve:outward-R6"><polygon class="reservation reservation-outward-expansion" points="103.4,8 103.4,16 109.4,16 109.4,8"/><text class="reservation-label" x="106.4" y="12">R6</text></g>
    <g data-reservation="reserve:outward-R7"><polygon class="reservation reservation-outward-expansion" points="12,30.4 20,30.4 20,24.4 12,24.4"/><text class="reservation-label" x="16" y="27.4">R7</text></g>
    <g data-reservation="reserve:outward-R8"><polygon class="reservation reservation-outward-expansion" points="46,30.4 54,30.4 54,24.4 46,24.4"/><text class="reservation-label" x="50" y="27.4">R8</text></g></g>
  <g aria-label="Building labels"><text class="label label-hall" x="0" y="-28"><tspan x="0" dy="-.25em">Gallery 01</tspan><tspan class="label-detail" x="0" dy="1.25em">Mediterranean Beginnings</tspan></text>
    <text class="label label-hall" x="-28" y="-86"><tspan x="-28" dy="-.25em">Gallery 02</tspan><tspan class="label-detail" x="-28" dy="1.25em">Renaissance</tspan></text>
    <text class="label label-hall" x="40" y="-126"><tspan x="40" dy="-.25em">Gallery 03</tspan><tspan class="label-detail" x="40" dy="1.25em">Phenomenology</tspan></text>
    <text class="label label-hall" x="88" y="-94"><tspan x="88" dy="-.25em">Gallery 04</tspan><tspan class="label-detail" x="88" dy="1.25em">Analytic Traditions: Logic</tspan></text>
    <text class="label label-hall" x="101" y="-28"><tspan x="101" dy="-.25em">Gallery 05</tspan><tspan class="label-detail" x="101" dy="1.25em">Political Action</tspan></text>
    <text class="label label-hall" x="40" y="-55"><tspan x="40" dy="-.25em">Forum</tspan><tspan class="label-detail" x="40" dy="1.25em">Core Questions Forum</tspan></text>
    <text class="label label-entrance" x="0" y="19.5"><tspan x="0" dy="-.25em">Entrance and orientation court</tspan></text></g>
  <g aria-label="Main entrance"><line class="entrance-line" x1="0" y1="27" x2="0" y2="24.6"/><circle class="entrance-dot" cx="0" cy="27" r="1.4"/><text class="marker-label" x="0" y="31.5" text-anchor="middle">MAIN ENTRANCE</text></g>
  <g aria-label="Visitor map kiosk" transform="translate(-3.6 -6.6)"><rect class="kiosk" x="-1.2" y="-1.2" width="2.4" height="2.4" transform="rotate(45)"/><text class="marker-label" x="2.6" y=".7">MAP KIOSK</text></g>
  <text class="caption" x="-44" y="33.5">SOLID · OUTER LOOP   DASHED · FORUM SPOKES   DOTTED · ENTRANCE SHORTCUT</text>
  <text class="caption" x="-44" y="36">PLAN · 3 PLANNED GALLERY CONNECTIONS   R1–R8 · 8 RESERVED OUTWARD EXPANSION PORTALS</text>
</svg>
